<svg xmlns="http://www.w3.org/2000/svg" width="512" height="512" viewBox="0 0 512 512" role="img" aria-label="TimeOSD icon">
  <defs>
    <linearGradient id="bg" x1="0" y1="0" x2="1" y2="1">
      <stop offset="0%" stop-color="#0F172A"/>
      <stop offset="100%" stop-color="#1E293B"/>
    </linearGradient>
    <linearGradient id="accent" x1="0" y1="0" x2="1" y2="1">
      <stop offset="0%" stop-color="#22D3EE"/>
      <stop offset="100%" stop-color="#3B82F6"/>
    </linearGradient>
    <filter id="shadow" x="-20%" y="-20%" width="140%" height="140%">
      <feDropShadow dx="0" dy="6" stdDeviation="8" flood-color="#020617" flood-opacity="0.35"/>
    </filter>
  </defs>

  <rect x="24" y="24" width="464" height="464" rx="96" fill="url(#bg)"/>

  <g filter="url(#shadow)">
    <rect x="88" y="128" width="336" height="224" rx="30" fill="#0B1222" stroke="#334155" stroke-width="8"/>

    <rect x="112" y="152" width="288" height="176" rx="18" fill="#111827"/>

    <g fill="#475569">
      <rect x="76" y="158" width="16" height="22" rx="6"/>
      <rect x="76" y="194" width="16" height="22" rx="6"/>
      <rect x="76" y="230" width="16" height="22" rx="6"/>
      <rect x="76" y="266" width="16" height="22" rx="6"/>
      <rect x="76" y="302" width="16" height="22" rx="6"/>

      <rect x="420" y="158" width="16" height="22" rx="6"/>
      <rect x="420" y="194" width="16" height="22" rx="6"/>
      <rect x="420" y="230" width="16" height="22" rx="6"/>
      <rect x="420" y="266" width="16" height="22" rx="6"/>
      <rect x="420" y="302" width="16" height="22" rx="6"/>
    </g>

    <rect x="130" y="272" width="252" height="38" rx="10" fill="url(#accent)" opacity="0.95"/>
    <text x="256" y="298" text-anchor="middle" font-family="Consolas, 'Courier New', monospace" font-size="24" font-weight="700" fill="#E2E8F0">2026-04-03 12:34:56</text>
  </g>

  <g filter="url(#shadow)">
    <circle cx="384" cy="116" r="64" fill="#0EA5E9"/>
    <circle cx="384" cy="116" r="52" fill="#E0F2FE"/>
    <circle cx="384" cy="116" r="5" fill="#0F172A"/>
    <line x1="384" y1="116" x2="384" y2="88" stroke="#0F172A" stroke-width="8" stroke-linecap="round"/>
    <line x1="384" y1="116" x2="406" y2="128" stroke="#0F172A" stroke-width="8" stroke-linecap="round"/>
  </g>

  <text x="256" y="420" text-anchor="middle" font-family="Segoe UI, Arial, sans-serif" font-size="40" font-weight="800" fill="#94A3B8">TimeOSD</text>
</svg>
